<svg aria-hidden="true" style="position: absolute; width: 0; height: 0; overflow: hidden;" version="1.1" xmlns="http://www.w3.org/2000/svg" xmlns:xlink="http://www.w3.org/1999/xlink">
<defs>
<symbol id="icon-cross" viewBox="0 0 32 32">
<path stroke-linejoin="round" stroke-linecap="round" stroke-miterlimit="4" stroke-width="2.6667" d="M24 8l-16 16M8 8l16 16"></path>
</symbol>
<symbol id="icon-x" viewBox="0 0 32 32">
<path stroke-linejoin="round" stroke-linecap="round" stroke-miterlimit="4" stroke-width="2.6667" d="M24 8l-16 16M8 8l16 16"></path>
</symbol>
<symbol id="icon-checkbox" viewBox="0 0 32 32">
<path fill="none" stroke="#a1c487" style="stroke: var(--color1, #a1c487)" stroke-linejoin="miter" stroke-linecap="butt" stroke-miterlimit="4" stroke-width="3" d="M8 1.5h16c3.59 0 6.5 2.91 6.5 6.5v16c0 3.59-2.91 6.5-6.5 6.5h-16c-3.59 0-6.5-2.91-6.5-6.5v-16c0-3.59 2.91-6.5 6.5-6.5z"></path>
</symbol>
<symbol id="icon-checked" viewBox="0 0 32 32">
<path fill="#a1c487" style="fill: var(--color1, #a1c487)" d="M19.806 10.526c0.219-0.32 0.582-0.527 0.994-0.527 0.663 0 1.201 0.538 1.201 1.201 0 0.252-0.077 0.485-0.21 0.678l0.003-0.004-6.51 9.6c-0.219 0.319-0.582 0.526-0.993 0.526s-0.774-0.207-0.99-0.522l-0.003-0.004-3.092-4.56c-0.13-0.189-0.207-0.422-0.207-0.674 0-0.663 0.538-1.201 1.201-1.201 0.412 0 0.775 0.207 0.991 0.523l0.003 0.004 2.098 3.096 5.514-8.136z"></path>
</symbol>
</defs>
</svg>
